<svg xmlns="http://www.w3.org/2000/svg" xmlns:xlink="http://www.w3.org/1999/xlink" viewBox="0 0 371.12 147.69"><defs><style>.cls-1,.cls-2,.cls-3,.cls-4,.cls-5,.cls-7{fill:#fff;}.cls-1{stroke:#fff;stroke-miterlimit:10;}.cls-2{filter:url(#luminosity-invert-noclip-2);}.cls-3{filter:url(#luminosity-invert-noclip-3);}.cls-4{filter:url(#luminosity-invert-noclip-4);}.cls-5{filter:url(#luminosity-invert-noclip-5);}.cls-6{mask:url(#mask);}.cls-8{mask:url(#mask-2);}.cls-9{mask:url(#mask-3);}.cls-10{mask:url(#mask-4);}.cls-11{mask:url(#mask-5);}.cls-12{fill:none;}.cls-13{filter:url(#luminosity-invert-noclip);}</style><filter id="luminosity-invert-noclip" x="26.99" y="46.11" width="62.48" height="62.03" filterUnits="userSpaceOnUse" color-interpolation-filters="sRGB"><feColorMatrix values="-1 0 0 0 1 0 -1 0 0 1 0 0 -1 0 1 0 0 0 1 0" result="invert"/><feFlood flood-color="#fff" result="bg"/><feBlend in="invert" in2="bg"/></filter><mask id="mask" x="26.99" y="46.11" width="62.48" height="62.03" maskUnits="userSpaceOnUse"><g class="cls-13"><path class="cls-1" d="M61.26,94.14h12a.67.67,0,0,0,.66-.66V82.3a.67.67,0,0,0-.66-.67H66.32a.67.67,0,0,0-.6.39L60.65,93.2A.66.66,0,0,0,61.26,94.14Z"/><path class="cls-1" d="M64.56,77.13h8.77a.53.53,0,0,0,.53-.57l-.76-10a.53.53,0,0,0-.52-.49H69.15a.54.54,0,0,0-.48.31l-4.59,9.95A.53.53,0,0,0,64.56,77.13Z"/><path class="cls-1" d="M60.18,77.13H52.53a.81.81,0,0,1-.81-.81V66.93a.81.81,0,0,1,.81-.81H63.88a.81.81,0,0,1,.75,1.1l-3.7,9.4A.8.8,0,0,1,60.18,77.13Z"/><path class="cls-1" d="M53.21,81.3h7a1.49,1.49,0,0,1,1.31,2.19l-5,9.26a1.46,1.46,0,0,1-1.2.78l-11.3.84A1.5,1.5,0,0,1,42.51,93c-.15-1.83,0-4.73,2.38-4.79,1.94,0,2.65.86,2.9,1.67A1.52,1.52,0,0,0,49.36,91l1-.09a1.48,1.48,0,0,0,1.35-1.48V82.79A1.49,1.49,0,0,1,53.21,81.3Z"/><path class="cls-1" d="M39.22,64.67v-.09c.07-.49.77-4.63,5-4.79a4.55,4.55,0,0,1,5,3.79v23a.5.5,0,0,1-.85.37,5.28,5.28,0,0,0-3.48-1.63,6,6,0,0,0-3.86,2,.5.5,0,0,1-.86-.34Z"/></g></mask><filter id="luminosity-invert-noclip-2" x="196.92" y="63.55" width="27.85" height="27.2" filterUnits="userSpaceOnUse" color-interpolation-filters="sRGB"><feColorMatrix values="-1 0 0 0 1 0 -1 0 0 1 0 0 -1 0 1 0 0 0 1 0" result="invert"/><feFlood flood-color="#fff" result="bg"/><feBlend in="invert" in2="bg"/></filter><mask id="mask-2" x="196.92" y="63.55" width="27.85" height="27.2" maskUnits="userSpaceOnUse"><path class="cls-2" d="M204.08,77.15s-.47-9.44,7.94-9.54c0,0,6.33-1.49,6.23,9.51s-7.65,9.39-7.65,9.39S203,86.49,204.08,77.15Z"/></mask><filter id="luminosity-invert-noclip-3" x="104.5" y="63.55" width="24.09" height="27.12" filterUnits="userSpaceOnUse" color-interpolation-filters="sRGB"><feColorMatrix values="-1 0 0 0 1 0 -1 0 0 1 0 0 -1 0 1 0 0 0 1 0" result="invert"/><feFlood flood-color="#fff" result="bg"/><feBlend in="invert" in2="bg"/></filter><mask id="mask-3" x="104.5" y="63.55" width="24.09" height="27.12" maskUnits="userSpaceOnUse"><polygon class="cls-3" points="112.81 80.46 120.56 80.46 118.58 67.71 112.81 80.46"/></mask><filter id="luminosity-invert-noclip-4" x="167.42" y="63.55" width="23.05" height="27.19" filterUnits="userSpaceOnUse" color-interpolation-filters="sRGB"><feColorMatrix values="-1 0 0 0 1 0 -1 0 0 1 0 0 -1 0 1 0 0 0 1 0" result="invert"/><feFlood flood-color="#fff" result="bg"/><feBlend in="invert" in2="bg"/></filter><mask id="mask-4" x="167.42" y="63.55" width="23.05" height="27.19" maskUnits="userSpaceOnUse"><path class="cls-4" d="M175.64,68.18v8.93s7.56.42,7.75-5S175.64,68.18,175.64,68.18Z"/></mask><filter id="luminosity-invert-noclip-5" x="271.63" y="63.51" width="24.09" height="27.12" filterUnits="userSpaceOnUse" color-interpolation-filters="sRGB"><feColorMatrix values="-1 0 0 0 1 0 -1 0 0 1 0 0 -1 0 1 0 0 0 1 0" result="invert"/><feFlood flood-color="#fff" result="bg"/><feBlend in="invert" in2="bg"/></filter><mask id="mask-5" x="271.63" y="63.51" width="24.09" height="27.12" maskUnits="userSpaceOnUse"><polygon class="cls-5" points="279.94 80.42 287.69 80.42 285.71 67.67 279.94 80.42"/></mask></defs><title>Recurso 3</title><g id="Capa_2" data-name="Capa 2"><g id="Capa_1-2" data-name="Capa 1"><g class="cls-6"><path class="cls-7" d="M27,108.14H74.3A15.17,15.17,0,0,0,89.47,93V46.11H41.93A15,15,0,0,0,27,61.06Z"/></g><g class="cls-8"><path class="cls-7" d="M212.39,63.55s12.38-.09,12.38,12.09c0,0,.38,14.9-14.64,15.1S197,77.15,197,77.15,197.47,64.5,212.39,63.55Z"/></g><g class="cls-9"><polygon class="cls-7" points="104.5 90.67 109.89 90.67 111.49 84.24 120.37 84.24 120.37 90.67 128.59 90.67 124.15 63.55 114.61 63.55 104.5 90.67"/></g><path class="cls-7" d="M154.57,68.56h4.54v-5H147s-12.1,1.8-12,15,12,12.1,12,12.1l6.47,0s5.48.92,5.58-4.84,0-8.7,0-8.7H153l-.38,9h-5.51S143,84.81,143,78s4.54-9.36,4.54-9.36Z"/><g class="cls-10"><path class="cls-7" d="M167.42,90.67h7V80.56h4l3.31,10.18h8.79l-7-12.45s7-1.7,7-7.94-6-6.8-6-6.8H169.22Z"/></g><polygon class="cls-7" points="231.1 90.75 237.24 90.75 240.17 68.01 243.57 90.19 251.32 90.75 258.59 68.01 257.93 90.75 265.11 90.75 265.11 63.55 254.91 63.55 248.11 82.26 245.93 63.55 235.63 63.55 231.1 90.75"/><path class="cls-7" d="M302.24,90.29h8.41l1.23-22.49s8.31-2,8.22,4.54-5.58,5.29-5.58,5.29l-.18,3.49s12.47,1.8,12.09-9.44c0,0,.47-7.66-7.28-7.75s-13.51,0-13.51,0Z"/><path class="cls-7" d="M350.54,67.51a2.78,2.78,0,0,0-2.7-3.62h-8.09c-6.9.62-6.42,7.79-6.42,7.79s-.1,6.42,6.14,7.65S343.62,85,343.62,85s-.85,1.42-4.91,1.51a7.37,7.37,0,0,1-5-1.82,1.38,1.38,0,0,0-2.14.52c-2.83,6,6.57,5.08,6.57,5.08a25,25,0,0,0,6-1.07c5.67-1.85,7.64-9.21,3.18-13.16a7.3,7.3,0,0,0-3.17-1.64s-3.21-1-4.17-3.66,2.24-2.88,2.24-2.88h1.61a32.89,32.89,0,0,1,4.74.44c.81.12,1.69,0,2-.76Z"/><g class="cls-11"><polygon class="cls-7" points="271.63 90.63 277.02 90.63 278.62 84.2 287.5 84.2 287.5 90.63 295.72 90.63 291.28 63.51 281.74 63.51 271.63 90.63"/></g><rect class="cls-12" width="371.12" height="147.69"/></g></g></svg>