<svg xmlns="http://www.w3.org/2000/svg" xmlns:xlink="http://www.w3.org/1999/xlink" viewBox="0 0 407.73 142.64"><defs><style>.cls-1,.cls-5{fill:#fff;}.cls-1{stroke:#fff;stroke-miterlimit:10;}.cls-2{mask:url(#mask);}.cls-3{fill:#116b39;}.cls-4{fill:none;}.cls-5{font-size:51.91px;font-family:Bluffolk;}.cls-6{letter-spacing:-0.05em;}.cls-7{letter-spacing:0em;}.cls-8{letter-spacing:-0.02em;}.cls-9{letter-spacing:-0.02em;}.cls-10{letter-spacing:-0.01em;}.cls-11{letter-spacing:-0.02em;}.cls-12{letter-spacing:0em;}.cls-13{filter:url(#luminosity-invert-noclip);}</style><filter id="luminosity-invert-noclip" x="35.06" y="44" width="62.48" height="62.03" filterUnits="userSpaceOnUse" color-interpolation-filters="sRGB"><feColorMatrix values="-1 0 0 0 1 0 -1 0 0 1 0 0 -1 0 1 0 0 0 1 0" result="invert"/><feFlood flood-color="#fff" result="bg"/><feBlend in="invert" in2="bg"/></filter><mask id="mask" x="35.06" y="44" width="62.48" height="62.03" maskUnits="userSpaceOnUse"><g class="cls-13"><path class="cls-1" d="M69.33,92h12a.67.67,0,0,0,.66-.66V80.19a.67.67,0,0,0-.66-.67H74.4a.67.67,0,0,0-.6.39L68.73,91.09A.66.66,0,0,0,69.33,92Z"/><path class="cls-1" d="M72.64,75h8.77a.52.52,0,0,0,.52-.57l-.75-10a.53.53,0,0,0-.53-.49H77.23a.53.53,0,0,0-.48.31l-4.6,10A.53.53,0,0,0,72.64,75Z"/><path class="cls-1" d="M68.26,75H60.61a.81.81,0,0,1-.81-.81V64.82a.81.81,0,0,1,.81-.81H72a.81.81,0,0,1,.75,1.1L69,74.51A.8.8,0,0,1,68.26,75Z"/><path class="cls-1" d="M61.29,79.19h7a1.49,1.49,0,0,1,1.31,2.19l-5,9.26a1.46,1.46,0,0,1-1.2.78l-11.3.84a1.5,1.5,0,0,1-1.6-1.36c-.15-1.83,0-4.73,2.37-4.79,1.95,0,2.66.86,2.91,1.67a1.52,1.52,0,0,0,1.57,1.12l1-.09a1.48,1.48,0,0,0,1.36-1.48V80.68A1.49,1.49,0,0,1,61.29,79.19Z"/><path class="cls-1" d="M47.3,62.56v-.09c.07-.49.76-4.63,5-4.79a4.54,4.54,0,0,1,5,3.79.25.25,0,0,1,0,.08v22.9a.51.51,0,0,1-.86.37A5.25,5.25,0,0,0,53,83.19a6,6,0,0,0-3.85,2,.51.51,0,0,1-.87-.34Z"/></g></mask></defs><title>agromap logo</title><g id="Capa_2" data-name="Capa 2"><g id="Capa_1-2" data-name="Capa 1"><g class="cls-2"><path class="cls-3" d="M35.06,106H82.37A15.17,15.17,0,0,0,97.54,90.86V44H50A15,15,0,0,0,35.06,59Z"/></g><rect class="cls-4" width="407.73" height="142.64"/><text class="cls-5" transform="translate(118.13 81.96)"><tspan class="cls-6">a</tspan><tspan class="cls-7" x="25.35" y="0">g</tspan><tspan class="cls-8" x="54.49" y="0">r</tspan><tspan x="81.23" y="0">o</tspan><tspan class="cls-9" x="111.67" y="0">m</tspan><tspan class="cls-10" x="143.81" y="0">a</tspan><tspan class="cls-11" x="171.06" y="0">p</tspan><tspan class="cls-12" x="197.97" y="0">s</tspan></text></g></g></svg>