<svg xmlns="http://www.w3.org/2000/svg" xmlns:xlink="http://www.w3.org/1999/xlink" viewBox="0 0 407.73 142.64"><defs><style>.cls-1,.cls-2,.cls-3,.cls-4,.cls-5{fill:#fff;}.cls-1{stroke:#fff;stroke-miterlimit:10;}.cls-2{filter:url(#luminosity-invert-noclip-2);}.cls-3{filter:url(#luminosity-invert-noclip-3);}.cls-4{filter:url(#luminosity-invert-noclip-4);}.cls-5{filter:url(#luminosity-invert-noclip-5);}.cls-6{mask:url(#mask);}.cls-7{fill:#116b39;}.cls-8{mask:url(#mask-2);}.cls-9{mask:url(#mask-3);}.cls-10{mask:url(#mask-4);}.cls-11{mask:url(#mask-5);}.cls-12{fill:none;}.cls-13{filter:url(#luminosity-invert-noclip);}</style><filter id="luminosity-invert-noclip" x="35.06" y="44" width="62.48" height="62.03" filterUnits="userSpaceOnUse" color-interpolation-filters="sRGB"><feColorMatrix values="-1 0 0 0 1 0 -1 0 0 1 0 0 -1 0 1 0 0 0 1 0" result="invert"/><feFlood flood-color="#fff" result="bg"/><feBlend in="invert" in2="bg"/></filter><mask id="mask" x="35.06" y="44" width="62.48" height="62.03" maskUnits="userSpaceOnUse"><g class="cls-13"><path class="cls-1" d="M69.33,92h12a.67.67,0,0,0,.66-.66V80.19a.67.67,0,0,0-.66-.67H74.4a.67.67,0,0,0-.6.39L68.73,91.09A.66.66,0,0,0,69.33,92Z"/><path class="cls-1" d="M72.64,75h8.77a.52.52,0,0,0,.52-.57l-.75-10a.53.53,0,0,0-.53-.49H77.23a.53.53,0,0,0-.48.31l-4.6,10A.53.53,0,0,0,72.64,75Z"/><path class="cls-1" d="M68.26,75H60.61a.81.81,0,0,1-.81-.81V64.82a.81.81,0,0,1,.81-.81H72a.81.81,0,0,1,.75,1.1L69,74.51A.8.8,0,0,1,68.26,75Z"/><path class="cls-1" d="M61.29,79.19h7a1.49,1.49,0,0,1,1.31,2.19l-5,9.26a1.46,1.46,0,0,1-1.2.78l-11.3.84a1.5,1.5,0,0,1-1.6-1.36c-.15-1.83,0-4.73,2.37-4.79,1.95,0,2.66.86,2.91,1.67a1.52,1.52,0,0,0,1.57,1.12l1-.09a1.48,1.48,0,0,0,1.36-1.48V80.68A1.49,1.49,0,0,1,61.29,79.19Z"/><path class="cls-1" d="M47.3,62.56v-.09c.07-.49.76-4.63,5-4.79a4.54,4.54,0,0,1,5,3.79.25.25,0,0,1,0,.08v22.9a.51.51,0,0,1-.86.37A5.25,5.25,0,0,0,53,83.19a6,6,0,0,0-3.85,2,.51.51,0,0,1-.87-.34Z"/></g></mask><filter id="luminosity-invert-noclip-2" x="205" y="61.44" width="27.85" height="27.2" filterUnits="userSpaceOnUse" color-interpolation-filters="sRGB"><feColorMatrix values="-1 0 0 0 1 0 -1 0 0 1 0 0 -1 0 1 0 0 0 1 0" result="invert"/><feFlood flood-color="#fff" result="bg"/><feBlend in="invert" in2="bg"/></filter><mask id="mask-2" x="205" y="61.44" width="27.85" height="27.2" maskUnits="userSpaceOnUse"><path class="cls-2" d="M212.16,75s-.48-9.44,7.93-9.54c0,0,6.33-1.49,6.24,9.51s-7.65,9.39-7.65,9.39S211.12,84.38,212.16,75Z"/></mask><filter id="luminosity-invert-noclip-3" x="112.58" y="61.44" width="24.09" height="27.12" filterUnits="userSpaceOnUse" color-interpolation-filters="sRGB"><feColorMatrix values="-1 0 0 0 1 0 -1 0 0 1 0 0 -1 0 1 0 0 0 1 0" result="invert"/><feFlood flood-color="#fff" result="bg"/><feBlend in="invert" in2="bg"/></filter><mask id="mask-3" x="112.58" y="61.44" width="24.09" height="27.12" maskUnits="userSpaceOnUse"><polygon class="cls-3" points="120.89 78.35 128.64 78.35 126.66 65.6 120.89 78.35"/></mask><filter id="luminosity-invert-noclip-4" x="175.5" y="61.44" width="23.05" height="27.19" filterUnits="userSpaceOnUse" color-interpolation-filters="sRGB"><feColorMatrix values="-1 0 0 0 1 0 -1 0 0 1 0 0 -1 0 1 0 0 0 1 0" result="invert"/><feFlood flood-color="#fff" result="bg"/><feBlend in="invert" in2="bg"/></filter><mask id="mask-4" x="175.5" y="61.44" width="23.05" height="27.19" maskUnits="userSpaceOnUse"><path class="cls-4" d="M183.72,66.07V75s7.56.42,7.75-5S183.72,66.07,183.72,66.07Z"/></mask><filter id="luminosity-invert-noclip-5" x="279.71" y="61.4" width="24.09" height="27.12" filterUnits="userSpaceOnUse" color-interpolation-filters="sRGB"><feColorMatrix values="-1 0 0 0 1 0 -1 0 0 1 0 0 -1 0 1 0 0 0 1 0" result="invert"/><feFlood flood-color="#fff" result="bg"/><feBlend in="invert" in2="bg"/></filter><mask id="mask-5" x="279.71" y="61.4" width="24.09" height="27.12" maskUnits="userSpaceOnUse"><polygon class="cls-5" points="288.02 78.31 295.77 78.31 293.79 65.56 288.02 78.31"/></mask></defs><title>Recurso 1</title><g id="Capa_2" data-name="Capa 2"><g id="Capa_1-2" data-name="Capa 1"><g class="cls-6"><path class="cls-7" d="M35.06,106H82.37A15.17,15.17,0,0,0,97.54,90.86V44H50A15,15,0,0,0,35.06,59Z"/></g><g class="cls-8"><path class="cls-7" d="M220.47,61.44s12.38-.09,12.38,12.09c0,0,.38,14.9-14.65,15.11S205.07,75,205.07,75,205.54,62.39,220.47,61.44Z"/></g><g class="cls-9"><polygon class="cls-7" points="112.58 88.56 117.96 88.56 119.57 82.13 128.45 82.13 128.45 88.56 136.67 88.56 132.23 61.44 122.69 61.44 112.58 88.56"/></g><path class="cls-7" d="M162.65,66.45h4.54v-5h-12.1s-12.09,1.8-12,15,12,12.1,12,12.1l6.47,0s5.48.92,5.58-4.84,0-8.7,0-8.7H161l-.37,9h-5.51S151,82.7,151,75.9s4.54-9.36,4.54-9.36Z"/><g class="cls-10"><path class="cls-7" d="M175.5,88.56h7V78.45h4l3.31,10.19h8.78l-7-12.46s7-1.7,7-7.94-6-6.8-6-6.8H177.3Z"/></g><polygon class="cls-7" points="239.18 88.64 245.32 88.64 248.25 65.9 251.65 88.08 259.4 88.64 266.67 65.9 266.01 88.64 273.19 88.64 273.19 61.44 262.99 61.44 256.18 80.15 254.01 61.44 243.71 61.44 239.18 88.64"/><path class="cls-7" d="M310.32,88.18h8.41L320,65.69s8.31-2,8.22,4.54-5.58,5.29-5.58,5.29L322.41,79s12.47,1.8,12.1-9.44c0,0,.47-7.66-7.28-7.75s-13.51,0-13.51,0Z"/><path class="cls-7" d="M358.62,65.4a2.78,2.78,0,0,0-2.7-3.62h-8.09c-6.9.62-6.43,7.79-6.43,7.79s-.09,6.42,6.14,7.65,4.16,5.67,4.16,5.67-.85,1.42-4.91,1.51a7.42,7.42,0,0,1-5-1.82,1.39,1.39,0,0,0-2.14.52c-2.82,6,6.57,5.08,6.57,5.08a25.16,25.16,0,0,0,6-1.07c5.67-1.85,7.64-9.21,3.18-13.16a7.4,7.4,0,0,0-3.18-1.64s-3.2-1-4.16-3.66,2.24-2.88,2.24-2.88h1.61a32.63,32.63,0,0,1,4.73.44c.81.12,1.7,0,2-.76Z"/><g class="cls-11"><polygon class="cls-7" points="279.71 88.52 285.09 88.52 286.7 82.09 295.58 82.09 295.58 88.52 303.8 88.52 299.36 61.4 289.82 61.4 279.71 88.52"/></g><rect class="cls-12" width="407.73" height="142.64"/></g></g></svg>